<svg version="1.1" id="Layer_1" xmlns="http://www.w3.org/2000/svg" x="0" y="0" viewBox="0 0 297.3 118" xml:space="preserve"><style>.st0{fill:#fff}.st1{fill:#41ad49}</style><path class="st0" d="M163.3 43.6c-.1.3-.1.6-.2.9v.2c-.1.9.2 1.7.8 2.4.9 1 2.5 1.6 4.7 1.7h32c2.6-.1 4.4-.7 5.4-1.9.4-.5.9-1.5.6-2.8-1.9-8.6-8.9-12.8-21.3-12.8h-.6c-11.6 0-18.4 3.5-20.8 10.8l-.6 1.5zm21 36.8c-21.4 0-30.9-8.8-31-28.5v-.3c.1-19.7 9.6-28.5 31-28.5h1.1c21 0 30.5 8.4 31 27.3 0 1.1-.3 2-1 2.7-1.1 1.1-3.1 1.8-5.7 1.8h-47.1l.4 3c1.2 9.7 8.3 14.4 21.6 14.4h.6c5.4 0 11.5-.5 16.2-4.2l.4-.3c1.2-1 2-1.6 4.5-1.6h6.8c.6 0 .9.1 1.1.4.3.4.2 1.1.2 1.2-4.5 11.1-17.2 12.6-29 12.6h-1.1zm0 0M76.6 79.9c-.4 0-.9-.2-1.7-1.6C71 71.6 69.1 63 69 52V2.4c0-1.4.6-2 2-2h5.7c.5 0 1.6 1 1.6 2v50.9c.2 7.5 1.5 13.6 4 18.6.2.4.8 1.6 1.1 2 .4.7.3 1.3-.3 1.8l-4.8 3.4c-.6.5-1 .7-1.6.8h-.1M31.3 31.3c-14.9 0-21.9 6.5-21.9 20.5v.2c.1 14 7 20.5 21.9 20.5h.6c14.9 0 21.9-6.5 21.9-20.5v-.2c-.1-14-7-20.5-21.9-20.5h-.6zM1.7 118c-.7 0-1.6-.9-1.7-1.7V51c.2-19.2 9.8-27.8 31-27.8h1.1c21.4 0 30.9 8.8 31 28.5v.3c-.1 19.7-9.6 28.5-31 28.5H31c-5.9 0-10.9-.5-15-1.5-.8-.2-1.5-.3-2.2-.3-2.8 0-4.5 1.8-4.5 4.8v32.8c0 .7-.6 1.6-1.7 1.7H1.7zm0 0M138.1 52c0 14-7 20.5-21.9 20.5h-.6c-14.9 0-21.9-6.5-21.9-20.5v-.2c0-14 7-20.5 21.9-20.5h.6c14.9 0 21.9 6.5 21.9 20.5v.2zm9.3-.6V51c-.2-19.2-9.8-27.8-31-27.8h-1.1c-21.4 0-30.9 8.8-31 28.5v.3c.1 19.7 9.6 28.5 31 28.5h1.1c5.9 0 10.9-.5 15-1.5.8-.2 1.5-.3 2.2-.3 1.3 0 2.3.4 3.1 1 .7.6.8.6 2.5.6h5.4c2.5 0 2.9-1.2 2.9-2.3V51.4zm0 0"/><path class="st1" d="M277.3 44.1c-2.7 0-3.6-.6-3.6 0s3.2 5.8 4.9 8.3c.7 1.1 1.1 1.8 1.3 2.6 3.2-2 7.4-4.5 9.6-5.9-2.5-1.4-6-3.5-6.8-3.9-1.4-.6-2.7-1.1-5.4-1.1M277.3 26.8c-.1-.1-.2-.1-.3-.1v-.1.1c-.1 0-.2 0-.3.1-.1.1-.2.1-.2.2-.1.1-.1.3-.1.4 0 .2.1.3.3.4.1.1.2.1.3.1h.1c.2 0 .3-.1.4-.3.1-.1.1-.2.1-.3 0-.1 0-.2-.1-.3-.1 0-.1-.1-.2-.2M280.8 29.1c-.1-.1-.2-.1-.3-.1h-.1c-.2 0-.3.1-.4.3-.1.1-.1.2-.1.3 0 .1 0 .2.1.3.1.1.1.2.2.2.1.1.2.1.3.1.1 0 .2 0 .3-.1.1-.1.2-.1.2-.2.1-.1.1-.2.1-.3 0-.1 0-.2-.1-.3 0-.1-.1-.2-.2-.2M283.1 30.5c-.1-.1-.2-.1-.3-.1-.1 0-.2 0-.3.1-.1.1-.2.1-.2.2-.1.1-.1.2-.1.3 0 .1 0 .2.1.3 0 .1.1.2.2.2.1.1.2.1.3.1.1 0 .2 0 .3-.1.1-.1.2-.1.2-.2.1-.2.1-.3.1-.5l-.3-.3M285.1 32c0-.1 0-.2-.1-.2l-.2-.2c-.1-.1-.2-.1-.3-.1h-.1c-.1 0-.2.1-.3.1l.9.6c.1 0 .1-.1.1-.2M279 27.9c-.1-.1-.2-.1-.3-.1h-.1c-.2 0-.3.1-.4.3-.1.1-.1.2-.1.3 0 .1 0 .2.1.3.1.1.1.2.2.2.1.1.2.1.3.1.1 0 .2 0 .3-.1.1-.1.2-.1.2-.2.1-.1.1-.3.1-.5-.1 0-.1-.2-.3-.3M289 34.2c-.1-.1-.2-.1-.3-.1h-.1c-.2 0-.3.1-.4.3-.1.1-.1.2-.1.3 0 .1 0 .2.1.3 0 .1.1.2.2.2.1.1.2.1.3.1.1 0 .2 0 .3-.1.1-.1.2-.1.2-.2.1-.1.1-.3.1-.5l-.3-.3"/><path class="st1" d="M292.1 36.2c0 .1-.1.3-.2.4l-.5.8-.3-.2.5-.8c.1-.1.1-.3.2-.3v-.2c0-.1-.1-.1-.1-.1-.1 0-.1-.1-.2-.1s-.2 0-.3.1c-.1.1-.2.2-.3.4l-.4.6-.3-.2.5-.8c.1-.2.2-.3.2-.3v-.2c0-.1-.1-.1-.1-.1-.1 0-.1-.1-.2-.1s-.2 0-.3.1l-.3.3-.4.6-.3-.2.9-1.5.3.2-.1.2h.2c.1 0 .3 0 .4.1.1 0 .1.1.2.2 0 .1.1.1.1.2v.2c.1 0 .2-.1.3-.1.1 0 .3 0 .4.1.1.1.2.1.2.3-.1.2-.1.3-.1.4m-3.5-.6c-.2 0-.3 0-.5-.1s-.4-.3-.4-.6c0-.2 0-.5.1-.7.1-.2.3-.3.5-.4h.2c.2 0 .3 0 .5.1s.4.3.4.6c0 .2 0 .5-.1.7-.1.2-.3.3-.6.4h-.1m-1-1.9c0-.2-.1-.4-.3-.5-.1-.1-.2-.1-.4-.1h-.1c-.2 0-.3.1-.4.3-.1.1-.1.2-.1.3 0 .1 0 .2.1.3.1.1.1.2.2.2.1.1.2.1.4.1h.2l.1.3c-.1.1-.2.1-.3.1h-.1c-.2 0-.3-.1-.5-.2s-.4-.3-.4-.6c-.1-.2 0-.5.1-.7.1-.1.2-.3.4-.3.1-.1.3-.1.4-.1h.1c.2 0 .3.1.5.2.1.1.2.1.3.2.1.1.1.2.2.3 0 .1.1.2 0 .3l-.4-.1zm-2-.1c0 .1-.1.1-.1.1h-.1-.1c-.1 0-.1-.1-.1-.1v-.2c0-.1.1-.1.1-.1h.2c.1 0 .1.1.1.1v.2m-.6-.7c-.1.1-.2.1-.3.1h-.4c-.1 0-.2-.1-.3-.1-.2-.1-.4-.3-.4-.6 0-.2 0-.5.1-.7.1-.2.3-.3.5-.4.1 0 .2-.1.3-.1.2 0 .3 0 .5.1.2.2.4.4.4.7 0 .2 0 .4-.2.6l-1.2-.8c-.1.1-.1.3-.1.4 0 .2.1.3.3.4.1 0 .1.1.2.1h.2c.1 0 .2 0 .3-.1l.1.4zm-2.2-.8l.1-.2h-.2-.1c-.1 0-.3-.1-.4-.1-.2-.1-.3-.3-.4-.6-.1-.2 0-.5.1-.7.1-.2.3-.3.6-.4h.2c.2 0 .3 0 .5.1l.3.3c0 .1.1.2.1.3l.1-.2.3.2-.9 1.5-.3-.2zm-1.8-1.2l1.3-2 .3.2-1.3 2-.3-.2zm-.5-.4c-.2 0-.3 0-.5-.1l-.3-.3c0-.1-.1-.2-.1-.3l-.4.7-.3-.2 1.3-2 .3.2-.1.2H280.7c.1 0 .3.1.4.1.2.1.3.3.4.6.1.2 0 .5-.1.7-.1.2-.3.4-.6.4h-.3m-1.8-1.1c-.2 0-.3-.1-.5-.1-.2-.1-.4-.3-.4-.6 0-.2 0-.5.1-.7.1-.2.3-.3.5-.4h.2c.2 0 .3.1.5.1.2.1.4.3.4.6 0 .2 0 .5-.1.7-.1.2-.3.3-.6.4h-.1m-1.6-.7c-.1.1-.3.2-.4.2-.2 0-.3-.1-.5-.2l-.3-.3c-.1-.1-.1-.2-.2-.3v-.5l.3.2c0 .1 0 .2.1.3.1.1.1.2.3.2.1.1.2.1.3.1.1 0 .2 0 .2-.1.1 0 .1-.1.2-.3h-.2-.1c-.1 0-.3-.1-.4-.1l-.3-.3c-.1-.1-.1-.3-.1-.4 0-.2.1-.3.1-.4l.3-.3c.1-.1.3-.1.4-.1.2 0 .4.1.5.1l.3.3c0 .1.1.2.1.3l.1-.2.3.2-.7 1.2c-.1.2-.2.3-.3.4m-1.5-1.4c0 .1-.1.1-.1.1h-.1-.1c-.1 0-.1-.1-.1-.1v-.2c0-.1.1-.1.1-.1h.2c.1 0 .1.1.1.1v.2m-1.4-.6l.2-1.2-1 .7h-.1l.3-1.7-1.4 1-.1-.1.2-1.2-1 .7h-.1v-.1l.3-1.7-1.4 1-.1-.1.2-1.2-1 .7h-.1v-.1l.3-1.8.3.2-.2 1.2 1-.7h.1v.1l-.2 1.2 1-.7.2.1h.1l.2.1-.2 1.2 1-.7h.1v.1l-.2 1.2 1-.7.2.1.3.2-.2 1.2 1-.7h.1v.1l-.2 1.2 1-.7.3.2-1.9.9zm23 12.1v-.4c-.2-1.4-.6-2.3-1.1-2.7-.5-.5-1.2-.9-1.8-1.4-1.1-.7-52-32.6-53.7-33.7-3.4-2.1-8 1.9-8 4.9V75c0 4.2 6 6.2 8 4.9 1.8-1.1 8-5.1 9-5.7l.1-.1c.4-1.8.8-3.3 1-3.9.6-2.4 1.1-3.2 2.2-4.4 1.1-1.1 9.9-9.2 10.7-10 .9-.8.7-1.5.8-1.7.1-.2-3.9-4.1-4.9-5.4-1-1.2-1.3-.2-1.6 0-.2.2-3.5 3.8-5 5.7-1.6 1.9-2.2 1.3-3.4 1-1.1-.3-10.5-6.7-10.5-6.7v-3.4s8.7 2.7 9.6 3c.9.4 1.7.7 2.1-.1.4-.8 2.1-5.4 3.2-6.6 1.1-1.2 2.7-2.3 3.2-2.3.5-.1.6-.3.6-.6 0-.1.1-.1.1-.2 2.5-.1 4.8-1.3 6.3-3.1-1.5 1.5-3.6 2.4-5.9 2.4-4.6 0-8.3-3.7-8.3-8.3 0-4.6 3.7-8.3 8.3-8.3 4.6 0 8.3 3.7 8.3 8.3 0 2-.7 3.8-1.9 5.2h.5c.3.7 1.2.9 1.2.9s2.7-.1 3.7 0 6.9 1.9 9.8 2.8c2.9.9 4.7 2.1 6.2 3 1.2.8 5.4 4.5 6.6 5.6l1.5-.9c.7-.5 1.3-.9 1.8-1.4.5-.5.9-1.4 1.1-2.7v-.4s.1-1 0-1.5c.3-.4.2-1.3.2-1.3"/><path class="st0" d="M163.2 94l-2.2 2c-.8-1.1-1.6-1.6-2.4-1.6-.4 0-.7.1-1 .3-.3.2-.4.5-.4.7 0 .3.1.5.3.8.2.3 1 1 2.2 2 1.2 1 1.9 1.6 2.1 1.8.6.6 1.1 1.2 1.3 1.8.3.6.4 1.2.4 1.9 0 1.3-.5 2.4-1.4 3.2-.9.9-2.1 1.3-3.5 1.3-1.1 0-2.1-.3-3-.8-.8-.6-1.6-1.4-2.2-2.6l2.6-1.5c.8 1.4 1.6 2.1 2.6 2.1.5 0 1-.2 1.3-.5.4-.3.5-.7.5-1.1 0-.4-.1-.7-.4-1.1-.3-.4-.9-.9-1.8-1.7-1.7-1.4-2.9-2.5-3.4-3.3-.5-.8-.8-1.5-.8-2.3 0-1.1.4-2.1 1.3-2.8.8-.8 1.9-1.2 3.1-1.2.8 0 1.6.2 2.3.6.8.3 1.6 1 2.5 2M165 91.8h3.1v6h5.3v-6h3.1v15.9h-3.1v-7h-5.3v7H165V91.8zm0 0M185.8 94.4c-1.5 0-2.7.5-3.7 1.5s-1.5 2.3-1.5 3.9c0 1.8.6 3.2 1.9 4.2 1 .8 2.1 1.2 3.4 1.2 1.4 0 2.7-.5 3.7-1.6 1-1 1.5-2.3 1.5-3.8s-.5-2.8-1.5-3.9c-1.1-1-2.3-1.5-3.8-1.5m0-3c2.3 0 4.2.8 5.8 2.4 1.6 1.6 2.4 3.6 2.4 6 0 2.3-.8 4.3-2.4 5.9-1.6 1.6-3.5 2.4-5.8 2.4-2.4 0-4.4-.8-6-2.5-1.6-1.7-2.4-3.6-2.4-5.9 0-1.5.4-2.9 1.1-4.2.7-1.3 1.8-2.3 3-3 1.5-.7 2.8-1.1 4.3-1.1M195.6 91.8h8.7v3h-5.7v2.9h5.7v2.9h-5.7v4.2h5.7v3h-8.7v-16zm0 0M215 94l-2.2 2c-.8-1.1-1.6-1.6-2.4-1.6-.4 0-.7.1-1 .3-.3.2-.4.5-.4.7 0 .3.1.5.3.8.2.3 1 1 2.2 2 1.2 1 1.9 1.6 2.1 1.8.6.6 1.1 1.2 1.3 1.8.3.6.4 1.2.4 1.9 0 1.3-.5 2.4-1.4 3.2-.9.9-2.1 1.3-3.5 1.3-1.1 0-2.1-.3-3-.8-.8-.6-1.6-1.4-2.2-2.6l2.5-1.5c.8 1.4 1.6 2.1 2.6 2.1.5 0 1-.2 1.3-.5.4-.3.5-.7.5-1.1 0-.4-.1-.7-.4-1.1-.3-.4-.9-.9-1.8-1.7-1.7-1.4-2.9-2.5-3.4-3.3-.5-.8-.8-1.5-.8-2.3 0-1.1.4-2.1 1.3-2.8.8-.8 1.9-1.2 3.1-1.2.8 0 1.6.2 2.3.6 1 .3 1.8 1 2.6 2"/></svg>